<?xml version="1.0" standalone="no"?>
<!DOCTYPE svg PUBLIC "-//W3C//DTD SVG 1.1//EN" "http://www.w3.org/Graphics/SVG/1.1/DTD/svg11.dtd" >
<svg xmlns="http://www.w3.org/2000/svg" xmlns:xlink="http://www.w3.org/1999/xlink" version="1.1">
<metadata>
Created by FontForge 20201107 at Thu Aug  1 07:59:17 2024
 By 
</metadata>
<defs>
<font id="Myfont-Regular" horiz-adv-x="250" >
  <font-face 
    font-family="Myfont"
    font-weight="400"
    font-stretch="normal"
    units-per-em="1000"
    panose-1="2 0 5 3 0 0 0 0 0 0"
    ascent="800"
    descent="-200"
    x-height="320"
    cap-height="489"
    bbox="33 -94 575.111 666"
    underline-thickness="50"
    underline-position="-100"
    unicode-range="U+000D-00A0"
  />
<missing-glyph horiz-adv-x="364" 
d="M33 0v666h265v-666h-265zM66 33h199v600h-199v-600z" />
    <glyph glyph-name=".notdef" horiz-adv-x="364" 
d="M33 0v666h265v-666h-265zM66 33h199v600h-199v-600z" />
    <glyph glyph-name=".null" 
 />
    <glyph glyph-name=".null" 
 />
    <glyph glyph-name="nonmarkingreturn" horiz-adv-x="333" 
 />
    <glyph glyph-name="CR" unicode="&#xd;" 
 />
    <glyph glyph-name="space" unicode=" " 
 />
    <glyph glyph-name="exclam" unicode="!" horiz-adv-x="193" 
d="M76 601q4 11 11 11q9 0 13 -133q2 -85 16 -189q5 -41 11 -52q4 -7 4 -13q0 -11 -10 -11q-7 0 -15 9q-12 14 -18 57q-15 116 -15 272q0 42 3 49zM81 -2q0 5 18 1q17 -3 28.5 -15t11.5 -25q0 -34 -26 -47q-11 -6 -19 -6q-14 0 -31 18q-13 14 -13 31q0 19 15 29q16 12 16 14
z" />
    <glyph glyph-name="quotedbl" unicode="&#x22;" horiz-adv-x="162" 
d="M62 600q8 2 11 -1q3 -2 6.5 -30t3.5 -45q0 -2 -0.5 -5t-0.5 -4q-2 -8 2 -8q5 0 5 15q0 16 4.5 28.5t11.5 12.5h1q6 -1 6 -14q-2 -14 -2 -52q-1 -35 -7 -35q-1 0 -8 1t-13 1q-11 0 -14.5 3t-9.5 16q-8 19 -8 56q0 58 12 61z" />
    <glyph glyph-name="quotedbl" unicode="&#x201e;" horiz-adv-x="162" 
d="M62 600q8 2 11 -1q3 -2 6.5 -30t3.5 -45q0 -2 -0.5 -5t-0.5 -4q-2 -8 2 -8q5 0 5 15q0 16 4.5 28.5t11.5 12.5h1q6 -1 6 -14q-2 -14 -2 -52q-1 -35 -7 -35q-1 0 -8 1t-13 1q-11 0 -14.5 3t-9.5 16q-8 19 -8 56q0 58 12 61z" />
    <glyph glyph-name="quotedbl" unicode="&#x201d;" horiz-adv-x="162" 
d="M62 600q8 2 11 -1q3 -2 6.5 -30t3.5 -45q0 -2 -0.5 -5t-0.5 -4q-2 -8 2 -8q5 0 5 15q0 16 4.5 28.5t11.5 12.5h1q6 -1 6 -14q-2 -14 -2 -52q-1 -35 -7 -35q-1 0 -8 1t-13 1q-11 0 -14.5 3t-9.5 16q-8 19 -8 56q0 58 12 61z" />
    <glyph glyph-name="quotedbl" unicode="&#x201c;" horiz-adv-x="162" 
d="M62 600q8 2 11 -1q3 -2 6.5 -30t3.5 -45q0 -2 -0.5 -5t-0.5 -4q-2 -8 2 -8q5 0 5 15q0 16 4.5 28.5t11.5 12.5h1q6 -1 6 -14q-2 -14 -2 -52q-1 -35 -7 -35q-1 0 -8 1t-13 1q-11 0 -14.5 3t-9.5 16q-8 19 -8 56q0 58 12 61z" />
    <glyph glyph-name="quotesingle" unicode="'" horiz-adv-x="137" 
d="M71 491q2 3 9 3t7 -4q0 -7 -7 -37t-7 -48q0 -24 -3 -24q-5 0 -12.5 13t-7.5 23q0 7 8.5 37.5t12.5 36.5z" />
    <glyph glyph-name="quotesingle" unicode="&#x201a;" horiz-adv-x="137" 
d="M71 491q2 3 9 3t7 -4q0 -7 -7 -37t-7 -48q0 -24 -3 -24q-5 0 -12.5 13t-7.5 23q0 7 8.5 37.5t12.5 36.5z" />
    <glyph glyph-name="quotesingle" unicode="&#x2019;" horiz-adv-x="137" 
d="M71 491q2 3 9 3t7 -4q0 -7 -7 -37t-7 -48q0 -24 -3 -24q-5 0 -12.5 13t-7.5 23q0 7 8.5 37.5t12.5 36.5z" />
    <glyph glyph-name="quotesingle" unicode="&#x2018;" horiz-adv-x="137" 
d="M71 491q2 3 9 3t7 -4q0 -7 -7 -37t-7 -48q0 -24 -3 -24q-5 0 -12.5 13t-7.5 23q0 7 8.5 37.5t12.5 36.5z" />
    <glyph glyph-name="comma" unicode="," horiz-adv-x="187" 
d="M119 50q6 7 12 6.5t6 -9.5t-11.5 -35.5t-21.5 -39.5q-10 -12 -10 -18q0 -4 -11 -8.5t-19 -4.5h-3q-9 2 -10 11q0 5 4 5q6 0 16 10t10 17q0 8 4 10t18 28t16 28z" />
    <glyph glyph-name="period" unicode="." horiz-adv-x="133" 
d="M67 -25q-16 0 -16 11t16 11t16 -11t-16 -11z" />
    <glyph glyph-name="colon" unicode=":" horiz-adv-x="130" 
d="M56 345q3 10 13 9q11 -2 11 -14q0 -8 -6 -12q-3 -3 -7 -3q-5 0 -8.5 4.5t-3.5 10.5q0 3 1 5zM59 230q15 11 19 2v-1q1 -1 1 -2q0 -5 -7 -12t-14 -7q-5 0 -7 3.5t0 8t8 8.5z" />
    <glyph glyph-name="semicolon" unicode=";" horiz-adv-x="183" 
d="M68 240q-1 7 1 8.5t10 0.5q12 -1 12 -10q0 -10 -10 -10q-11 0 -13 11zM109 138q8 8 13 8q7 0 7 -11q0 -4 -4 -18q-3 -11 -3.5 -19t-4.5 -19q-6 -17 -8 -42q-2 -29 -7 -34q-5 -7 -19 -7q-15 0 -25 8q-7 6 -7 11q0 8 14 8q11 0 14 6.5t8 45.5q1 5 12 42q4 12 10 21z" />
    <glyph glyph-name="question" unicode="?" horiz-adv-x="233" 
d="M66 519q9 5 24 5q19 0 40 -8q29 -10 39 -21.5t12 -35.5q0 -3 0.5 -7.5t0.5 -6.5q0 -15 -9 -44q-11 -31 -11 -40q0 -10 -13 -40t-18 -30q-4 0 -9 12q-2 6 -2 9q0 9 9 33q9 21 9 35q0 13 3 19q13 28 13 53q0 5 -1 6q-4 2 -2 6q1 1 1 5q0 10 -17 19q-14 8 -48 10
q-33 3 -33 8q0 7 12 13zM158 171q11 0 14 -1.5t3 -8.5q0 -25 -10 -25q-5 0 -15.5 12.5t-10.5 17.5t19 5z" />
    <glyph glyph-name="A" unicode="A" horiz-adv-x="303" 
d="M145 460q0 6 -10 33.5t-13 27.5q-8 0 -19 -68q-8 -46 -8 -56q0 -14 15 -14q2 0 7 0.5t8 0.5q32 2 35 7q1 2 1 5q0 6 -6 26q-10 32 -10 38zM93 539q3 11 10 22t16 11h3q8 -2 24 -35.5t23 -61.5q18 -74 24 -82q1 -1 7 -1t21 1t20 1q6 0 7 -1t1 -3q0 -5 -26 -14
q-23 -8 -23 -16q0 -11 9 -56t15 -62q5 -19 1 -23q-2 -2 -5 -2q-7 0 -15 7t-9 16q-3 11 -8.5 37t-8.5 36q-7 21 -9 35l-1 13l-31 -1q-34 -1 -38.5 -5.5t-5.5 -33.5q0 -14 -8 -73q-10 -63 -15 -65q-1 -1 -2 -1q-3 0 -4 1q-5 2 -5 39q0 40 6 92q3 26 3 35t-2 9q-15 5 -15 17
q0 9 10 12q9 2 10 23q2 49 10 82q10 43 11 47z" />
    <glyph glyph-name="B" unicode="B" horiz-adv-x="323" 
d="M214 519q-7 6 -43 6q-27 0 -47 -5q-19 -6 -19 -23q0 -9 3 -22q3 -18 9 -56q15 -87 15 -92l3 -38h14q24 0 54 28q13 13 25.5 34.5t12.5 32.5q0 19 -69 34q-25 5 -30 10q-3 3 -3 7q0 14 24 20q20 6 37 23q20 22 20 31q0 5 -6 10zM71 520q25 30 79 30q20 0 47 -3
q31 -4 40 -15q11 -12 8 -26q-5 -29 -36 -61q-10 -11 -7 -12q1 -1 4 -2q28 -9 45.5 -23t17.5 -28q0 -12 -14.5 -37.5t-29.5 -38.5q-37 -36 -69 -40q-15 -2 -18.5 -3.5t-3.5 -8.5q0 -14 -7 -14q-5 0 -10 7.5t-5 16.5q0 12 -9 25q-8 14 -8 22q0 7 6 15q4 4 4 13q0 13 -8 53
q-11 59 -11 67q0 26 -18 30q-12 1 -12 9t15 24z" />
    <glyph glyph-name="C" unicode="C" horiz-adv-x="413" 
d="M166 563q10 9 23 9t23 -1q40 -4 54.5 -15.5t19.5 -44.5q4 -21 -3 -21t-16 19q-11 22 -19 27.5t-27 5.5q-28 0 -46.5 -9t-44.5 -36q-19 -19 -35 -54.5t-16 -56.5q0 -10 7 -31q7 -16 31 -30.5t52 -18.5q9 -2 44 -2q68 0 114 8q10 2 23 2q9 0 9 -2q0 -6 -33 -16
q-54 -16 -122 -16q-41 0 -59 7q-65 23 -79 47q-12 20 -12 51q0 53 29 96q13 20 38.5 47t30.5 27t14 8z" />
    <glyph glyph-name="D" unicode="D" horiz-adv-x="451" 
d="M110 573q24 8 52 8q4 0 14.5 -0.5t17.5 -0.5q60 -1 101 -14q54 -16 67 -22t23 -20q12 -16 12 -45q0 -20 -3 -27.5t-18 -27.5q-33 -42 -79 -80q-52 -41 -96 -53q-29 -10 -42 -15q-30 -12 -44 -12q-9 0 -12 6q-3 7 -1 9t36 16.5t46 18.5q49 15 93 46.5t71 71.5q26 38 26 59
q0 19 -22 30q-59 30 -165 32h-17q-43 0 -43 -3t-11 -1t-11 -2q0 -3 -4.5 -2t-4.5 -1q0 -4 -12.5 -11.5t-19.5 -7.5t-7 7q0 11 10 18q15 13 43 23zM114 520q5 5 11 5t6 -29q0 -46 4 -87q6 -60 6 -79q0 -16 -4 -20q-1 -1 -2 -1q-9 0 -18 59.5t-9 108.5q0 35 6 43z" />
    <glyph glyph-name="E" unicode="E" horiz-adv-x="369" 
d="M200 462q30 5 74 5q22 0 24 -2q1 -1 1 -4q0 -11 -34 -13q-23 0 -71 -10q-44 -9 -93 -11l-50 -3l2 10q1 8 10 10.5t54 7.5q75 9 83 10zM73 401q7 6 10.5 2.5t2.5 -15.5v-53l1 -38l32 3q79 5 91 5q38 2 41 2q19 0 19 -6q0 -9 -46 -15q-5 0 -47.5 -6t-61.5 -6h-8l-21 3
l2 -28q4 -52 15 -92q2 -7 11 -1q10 6 14 6q6 0 6 -8q0 -6 -1 -9q-2 -11 -1 -14.5t7 -5.5q3 -1 14 -1q37 0 60 10q19 7 26 7q10 0 38 6q20 5 27 5q8 0 8 -4q0 -3 -2 -5q-4 -4 -41 -15q-12 -3 -32.5 -9.5t-23.5 -7.5q-30 -10 -63 -10q-9 0 -17 2q-7 1 -27 17
q-13 11 -26.5 37.5t-13.5 38.5q0 19 -4 59q-4 28 -4 46q0 8 1 9q5 6 0 26q-1 4 -1 14q0 39 15 51z" />
    <glyph glyph-name="F" unicode="F" horiz-adv-x="334" 
d="M131 490q46 3 79 3q62 0 65 -10q1 -2 -1 -3t-6 -1.5t-10 -0.5q-13 0 -69 -8q-45 -6 -79 -6q-30 0 -33 5q-2 5 4 11q6 7 50 10zM80 400q0 10 6 6q3 -3 5 -8q3 -9 11 -6q6 2 7 0t0 -14l-1 -17l46 1q11 0 27 0.5t34 2t26 1.5q13 1 28 1q11 0 11 -3q0 -9 -55 -17.5t-98 -8.5
q-17 0 -23 1l-24 2l-4 -13q-3 -13 -1 -19q1 -2 1 -50v-20q0 -30 5 -39q8 -18 10 -27q2 -11 1 -13t-7 -2q-9 0 -20 13q-10 12 -13 62q-1 9 -1 30q0 94 12 116q5 8 11 12t6 9z" />
    <glyph glyph-name="G" unicode="G" horiz-adv-x="459" 
d="M148 466q23 10 33 10t21 -5q14 -5 24.5 -20t12.5 -31q1 -4 1 -12q0 -17 -7 -17q-10 0 -19 27q-7 22 -21 30q-11 6 -15 6q-6 0 -18 -6q-19 -8 -28 -19.5t-26 -45.5q-18 -37 -23 -80q-2 -28 -2 -38q0 -62 33 -86q12 -9 30 -9q24 0 50 15q24 14 24 19q0 4 7 11q7 6 18 26.5
t16 38.5q4 16 3.5 20t-5.5 7q-5 4 -27 4q-19 0 -25 4t-3 11t10 7q1 0 11 0.5t26 0.5h30q47 0 90 5q10 1 23 1q10 0 11 -2l1 -1v-1q0 -9 -66 -20l-44 -8v-67q-1 -73 -10 -73q-2 0 -7 3q-5 5 -5 16q0 9 1 15q1 5 1 13q0 16 -5 16q-3 0 -8 -9q-7 -12 -24 -30t-31 -27
q-30 -19 -62 -19q-35 0 -53 20q-38 41 -38 115q0 16 3 31q5 26 12 37q6 10 6 19q0 8 8.5 25t15.5 22q6 4 16 23q10 17 34 28z" />
    <glyph glyph-name="H" unicode="H" horiz-adv-x="294" 
d="M197 472q8 18 17 18q8 0 13 -7l1 -2v-3q0 -31 -13 -55q-6 -11 -6 -49q0 -49 8 -106.5t17 -69.5q17 -22 -1 -22q-8 0 -21 27q-17 37 -24 138v4q-1 17 -7 18l-6 1q-8 0 -34 -3q-5 -1 -16 -1q-14 0 -23 3q-8 3 -12 3q-9 0 -9 -16q0 -4 4 -38q6 -52 6 -76q0 -18 -4 -22
q-5 -6 -8 -3q-2 2 -11 69t-9 83q0 23 -5 63q-3 22 -3 35q0 21 14 24q4 1 5.5 -3.5t1.5 -19.5q0 -19 4 -44t8 -29t36 -6q8 -1 20 -1q15 0 30 5q16 7 16 10q3 55 11 75z" />
    <glyph glyph-name="I" unicode="I" horiz-adv-x="364" 
d="M57 484q1 5 14 5q14 0 25 -1q27 -3 75 -5q39 -2 46 -4q3 -1 3 -3q0 -11 -34 -15q-17 -2 -21 -8t-15 -42q-4 -14 -9 -67.5t-5 -79.5q0 -10 1 -11q1 -3 35 -3q57 0 80 5q31 7 49 7q8 0 8 -2q0 -13 -70 -27q-28 -7 -55 -7q-7 0 -41 2q-46 3 -57.5 5t-11.5 8q0 11 23 11h21
l-1 50v12q0 79 17 116q9 18 9 23q0 6 -17 10.5t-39 4.5q-31 0 -31 11q0 3 1 5z" />
    <glyph glyph-name="J" unicode="J" horiz-adv-x="376" 
d="M304 490q10 6 15 2q1 -1 1 -3q0 -8 -24.5 -22t-56.5 -23q-56 -14 -144 -14q-16 0 -21 1q-13 2 -16 4.5t-2 9.5q1 11 13 10q8 -1 31 -1q77 0 125 10q61 15 79 26zM230 409q3 5 6 5q8 0 16 -102q2 -34 2 -42q0 -24 -5.5 -32.5t-20.5 -11.5q-1 0 -3.5 -0.5t-3.5 -0.5
q-9 0 -34 12q-27 13 -44 40q-18 30 -18 39q0 3 2 3q6 0 23 -24q13 -18 32 -31t32 -13h4q14 2 14 43q0 20 -3 53q-3 30 -3 42q0 14 4 20z" />
    <glyph glyph-name="K" unicode="K" horiz-adv-x="339" 
d="M55 512q2 5 7 3q3 -1 6 -26.5t5 -52t3 -29.5q3 -2 15 12q13 14 37.5 35t33.5 29q27 24 34 24q4 0 6 -4q1 -1 1 -4q0 -10 -50 -54t-55 -56q-8 -13 0 -21q10 -12 60 -24t89 -12h7q30 0 30 -3q0 -10 -49 -12q-3 0 -10 -0.5t-11 -0.5q-82 0 -119 26q-8 5 -11 5t-3 -4
q0 -7 4 -16q7 -17 7 -38v-7q0 -5 -6.5 -6t-9.5 4q-4 7 -9.5 32t-5.5 37q0 16 -4 32q-5 17 -5 86q0 41 3 45z" />
    <glyph glyph-name="L" unicode="L" horiz-adv-x="360" 
d="M68 459q12 27 18 27q4 0 4 -10q0 -1 -0.5 -4t-0.5 -5q-2 -20 -7 -33q-4 -13 -4 -46q0 -36 5 -47q6 -16 17 -21.5t40 -7.5q2 0 7.5 -0.5t8.5 -0.5q58 0 108 20q28 10 38 10q4 0 4 -2q0 -12 -35 -28q-47 -22 -129 -22q-4 0 -11.5 0.5t-10.5 0.5q-23 1 -30.5 3.5t-17.5 15.5
q-19 22 -19 59q0 3 0.5 11.5t0.5 13.5q1 38 14 66z" />
    <glyph glyph-name="M" unicode="M" horiz-adv-x="338" 
d="M88 369q-1 42 -7 42q-3 0 -6 -6q-4 -8 -4 -19q0 -16 10 -49q3 -11 4 -11q3 0 3 29v14zM83 457q6 3 10 3q18 0 40 -60q32 -83 41 -83q5 0 9.5 8.5t8.5 23t6 18.5q9 16 9 26q2 17 12.5 32.5t19.5 15.5q3 0 4 -1q6 -3 6 -36q0 -20 -3 -33q-3 -15 4 -24q8 -8 10 -30
q2 -23 15 -51q9 -23 9 -29q0 -3 -1 -4q-2 -2 -4 -2q-5 0 -31 37q-22 31 -22 49q0 25 -7 25q-2 0 -5 -9q-5 -12 -5 -16q0 -5 -12 -17.5t-17 -12.5q-13 0 -27 17t-22 42q-4 13 -13 28l-4 4q-3 0 -3 -74q0 -60 -3.5 -80t-13.5 -20q-8 0 -15.5 20t-9.5 47q-2 20 -9.5 44t-7.5 54
q0 52 14 52l2 -1h3q5 -2 6.5 1t0.5 14q-1 17 5 22z" />
    <glyph glyph-name="N" unicode="N" horiz-adv-x="275" 
d="M198 564q2 1 4 1q4 0 7 -13t5.5 -28t6.5 -19q2 -2 2 -17q0 -17 -1 -28q-2 -22 -2 -58q0 -17 -10 -36.5t-19 -21.5h-1q-9 0 -23.5 14.5t-22.5 32.5q-11 24 -29 54.5t-22 30.5t-4 -25q0 -3 -0.5 -36.5t-0.5 -55.5q-1 -49 -2.5 -59.5t-8.5 -11.5h-2q-18 0 -19 61q0 39 -4 75
q-1 8 -1 18q0 11 4 22t5 24q5 34 30 34q16 0 53 -75q25 -51 35 -60l11 -10v11q0 6 5.5 24t5.5 26q0 5 -1 7q-3 6 -3 70q0 37 2 49z" />
    <glyph glyph-name="O" unicode="O" horiz-adv-x="339" 
d="M141 621q15 5 32 5q53 0 97 -76q9 -15 11 -26.5t3 -46.5l2 -50l-18 -37q-15 -31 -28 -44t-42 -28q-26 -13 -50 -13q-41 0 -67.5 33t-26.5 80q0 19 7.5 48t15.5 37q14 15 19 10q2 -2 0 -7q-19 -46 -19 -69q0 -9 1 -15q3 -28 16 -52t28 -32q12 -5 19 -5q1 0 29 4
q23 4 30.5 7.5t17.5 14.5q42 48 42 118q0 33 -6.5 52t-24.5 38q-35 37 -66 37q-20 0 -45 -24q-12 -12 -19 -12q-3 0 -3 5q0 6 2 10q3 9 16.5 21t26.5 17z" />
    <glyph glyph-name="P" unicode="P" horiz-adv-x="270" 
d="M89 565q11 7 23 7q10 0 17 -1q35 -4 60 -19t25 -32q0 -20 -20 -44t-50 -39q-20 -10 -28 -10q-4 0 -12 2q-14 4 -15 4q-4 0 -4 -5q0 -4 3 -14q3 -14 10.5 -65t7.5 -58q0 -17 -7 -17t-9 10q-14 62 -22 114q-2 23 -9 44q-5 18 -5 32q0 29 10 29h1q7 -1 10 -24q3 -20 6 -26
q2 -2 10 -2q25 0 45 10q12 6 25 19q11 11 17 11t6 2q3 18 3 25t-4.5 10t-14.5 7q-16 8 -36 8q-13 0 -21 -1q-10 -1 -22 -1q-14 0 -14 7q0 8 14 17z" />
    <glyph glyph-name="Q" unicode="Q" horiz-adv-x="392" 
d="M91 598q8 14 19 11q3 -3 4 -6q0 -5 -6 -19q-27 -52 -27 -121q0 -29 2.5 -40.5t12.5 -32.5q14 -29 42 -56.5t43 -27.5q1 0 2 0.5t2 0.5q7 2 7 5q0 4 -13 20q-14 16 -21 14q-9 -3 -11 2.5t6 11.5q9 8 6 15t6 11h2q7 0 14 -8t7 -17q0 -8 9 -15q8 -7 6 -11q-3 -5 4.5 -11.5
t13.5 -4.5q10 3 23.5 17t13.5 20q0 8 7 18t7 61t-11 73t-32 41.5t-38 24.5q-12 3 -28 3h-8q-2 0 -5.5 -0.5t-4.5 -0.5q-9 0 -9 3q0 2 9 8q15 9 27 9t25 -6q16 -7 39.5 -21.5t28.5 -21.5q11 -13 30 -82q5 -20 5 -37q0 -67 -46 -113q-23 -23 -23 -25t36 -31t52 -29q18 0 18 -8
q0 -9 -22 -15q-1 0 -2.5 -0.5t-2.5 -0.5q-22 0 -72 47q-30 28 -41 28h-6h-6q-18 0 -47 21q-12 8 -24.5 22t-12.5 19t-7 10q-7 6 -18.5 28.5t-16.5 42.5q-4 13 -4 34q0 13 1 20q2 26 13.5 66t21.5 54z" />
    <glyph glyph-name="R" unicode="R" horiz-adv-x="337" 
d="M89 578q12 2 17 2q24 0 55 -13q15 -7 20 -11.5t8 -15.5q3 -10 3 -20q0 -13 -6 -22q-4 -5 -30 -22t-39 -22q-18 -8 -18 -18q0 -4 3 -7q7 -7 18 -13t26.5 -13t24.5 -12q56 -30 100 -30q21 0 7 -13q-4 -4 -19 -4q-25 0 -58 10q-45 15 -84 41q-12 9 -17 9q-7 0 -8 -33
q-1 -23 -2.5 -28.5t-8.5 -6.5h-3q-5 0 -5 15q0 19 1 35q0 5 0.5 16.5t0.5 17.5q0 35 -3 54q-3 22 -3 35q0 8 2 14q5 9 7 9q5 0 11 -32q5 -30 8 -30t20 10q18 11 29 11q10 0 21 14q7 10 7.5 13.5t-3.5 11.5q-5 9 -24 21q-13 8 -37 8q-22 0 -42 -5q-14 -4 -14 4q0 13 35 20z
" />
    <glyph glyph-name="S" unicode="S" horiz-adv-x="306" 
d="M81 596q15 4 49 4q53 0 69 -7q11 -6 22 -17t11 -16q0 -8 -10 -7t-12 7q-4 9 -17 14q-15 6 -57 6q-35 0 -45 -5q-7 -4 -7 -12q0 -15 24.5 -34t39.5 -24q18 -5 49 -20.5t42 -24.5q12 -11 14 -40q1 -8 1 -19q0 -13 -10 -25q-16 -19 -24 -22q-12 -6 -35 -6q-20 0 -33 5
q-14 6 -27.5 19.5t-13.5 21.5q0 11 5 10q3 0 5 -6t22 -19q22 -14 40 -14t30 12q22 24 22 45q0 4 -2 8q-15 25 -53 39q-15 6 -57 28q-39 21 -51 41q-16 27 -16 37q0 15 25 21z" />
    <glyph glyph-name="T" unicode="T" horiz-adv-x="421" 
d="M326 626q28 4 30 4q9 0 9 -5q0 -18 -73 -25q-38 -4 -48 -6.5t-10 -9.5q0 -6 -13 -34q-10 -18 -12 -29.5t-2 -39.5q0 -75 15 -108q7 -17 7 -20q0 -4 -5 -4q-4 0 -7 1q-9 2 -13.5 13t-8 29t-5.5 25q-5 13 -5 60q0 32 2 42.5t14 33.5q16 32 16 34q0 3 -68 3q-93 1 -93 13
q0 5 10.5 6t71.5 2q112 2 188 15z" />
    <glyph glyph-name="U" unicode="U" horiz-adv-x="346" 
d="M245 465q7 12 27 -4q22 -18 22 -88q0 -64 -19 -86q-3 -4 -6.5 -9t-5 -8.5t-5 -7t-8.5 -6.5q-4 -2 -27 -15q-16 -10 -36 -10q-31 0 -60 23q-16 12 -23 20.5t-20 32.5q-30 55 -30 116q0 15 3 25l5 19l8 -12q9 -14 12 -50q4 -40 18 -69t46 -61q10 -10 16 -12t24 -2
q25 0 43 13q36 26 40 85q1 8 1 23q0 42 -17 65q-11 13 -8 18z" />
    <glyph glyph-name="V" unicode="V" horiz-adv-x="385" 
d="M310 464q9 18 15 18t6 -9q0 -26 -19 -60q-1 -2 -6.5 -12.5t-13.5 -26.5l-15 -30q-30 -59 -54 -84q-17 -17 -24 -21t-19 -4q-19 0 -45 24q-26 22 -34 41q-8 15 -12 17q-8 6 -21 43t-13 52q0 8 5 8q7 0 24 -33.5t40 -72t43 -47.5l18 -7l16 12q12 9 13.5 15.5t10.5 15.5
q8 9 15 28.5t14 27.5q9 13 9 16q0 4 6 10q5 5 13 26t12 26q7 8 16 27z" />
    <glyph glyph-name="W" unicode="W" horiz-adv-x="629" 
d="M332 495q5 5 10 5t8 -4t6 -14l4 -10q19 -44 19 -63q0 -11 13.5 -56.5t20.5 -55.5l6 -10l5 10q7 13 11 25q13 31 30 31q10 0 18 -7q13 -10 16 -10q7 0 13 44q4 32 20.5 61t31.5 29q20 0 4 -13q-4 -4 -7 -8.5t-5 -8t-4 -10.5l-3 -10.5t-3 -12.5t-3 -14q-5 -18 -10 -47
q-8 -53 -30 -53q-11 0 -23 16q-12 17 -19 17q-4 0 -4 -11q0 -4 -15 -32q-16 -32 -28 -32q-6 0 -12 7q-11 11 -26.5 54.5t-22.5 80.5q-5 20 -11 38q-7 16 -7 30q0 13 -4 13q-3 0 -4 4t0.5 9t4.5 8zM65 97q-2 -1 -5 0t-1 2q1 1 3 1q4 0 3 -3z" />
    <glyph glyph-name="X" unicode="X" horiz-adv-x="277" 
d="M60 471q3 3 5 3q9 0 9 -24q0 -11 6 -13q5 -2 18 -24l12 -22l15 17q16 18 40 25q22 7 25 4q4 -4 -1 -10.5t-14 -10.5q-11 -5 -32 -22.5t-21 -21.5q0 -5 24 -31.5t49 -50.5q27 -25 27 -30q0 -6 -14 -2q-14 3 -34 24q-15 16 -28 26q-8 3 -18 21t-19 18q-7 0 -15 -14
q-7 -16 -7 -21q0 -8 -11.5 -33t-15.5 -25q-7 0 -7 11q0 25 30 90l9 18l-18 33q-18 32 -18 53q0 8 4 12z" />
    <glyph glyph-name="Y" unicode="Y" horiz-adv-x="245" 
d="M57 485q-1 11 -1 26q0 14 4 14h1q5 -2 7 -15q2 -18 14 -53.5t19 -42.5q7 -9 12 -9q6 0 9 27q5 57 25 75q10 10 37 10q7 0 7 -2q0 -12 -16 -17q-19 -6 -29 -43q-4 -15 -4 -26q0 -15 5 -39q16 -71 29 -107q6 -19 4 -24t-8.5 -3.5t-6.5 7.5q0 5 -9 21q-23 46 -23 71v8
q0 27 -20 27h-1q-49 0 -55 95z" />
    <glyph glyph-name="Z" unicode="Z" horiz-adv-x="395" 
d="M71 517q7 1 28 1q24 0 39 -3q9 -2 9 -21q0 -17 -8.5 -39t-17.5 -28q-8 -5 -8 -14q0 -5 8.5 -7t42.5 -4q14 -1 41 -1q81 0 126 19q3 1 6 1q4 0 4 -2q0 -8 -17 -19q-32 -22 -119 -22q-6 0 -19 0.5t-20 0.5l-66 3l-4 -16q-8 -32 -8 -40q0 -11 13 -24q20 -20 48 -20
q26 0 43 20q12 12 12 5v-9q0 -15 -6 -22t-23 -13q-9 -4 -18 -4q-13 0 -47 14q-27 10 -36 29q-9 22 -9 36q0 16 7 30q5 12 4 15.5t-9 9.5q-11 8 -11 18q0 14 8 14q3 0 6 -5q4 -7 10 -6.5t11 8.5q6 10 15 19q7 8 13.5 26t6.5 29q0 4 -21 4h-15q-10 -1 -22 -1q-14 0 -14 8
t17 10z" />
    <glyph glyph-name="a" unicode="a" horiz-adv-x="307" 
d="M140 233l4 6q0 2 -2 2q-4 0 -21 -6q-13 -4 -22 -4q-4 0 -12 2q-4 2 -9 2q-4 0 -4 -2q0 -5 13 -11q4 -2 14 -2q28 0 39 13zM151 284q-16 11 -22 11q-7 0 -15 -11q-7 -10 -14 -17q-9 -11 -2 -16q2 -2 6 -1q2 1 30 8q28 6 28 13q0 4 -11 13zM108 308q18 8 22 8q6 0 26 -10
l23 -13l6 10q7 10 13 10q7 0 7 -13t9 -26q9 -14 4 -19q-4 -6 -4 -11q0 -14 21 -34q17 -17 17 -23q0 -4 -7 -4q-8 0 -23 13t-24 28q-10 19 -13 19q-5 0 -10 -3.5t-5 -7.5q0 -7 -7 -9q-2 -1 -15 -8.5t-24 -13t-18 -5.5q-15 0 -29.5 6.5t-19.5 16.5q-3 6 -3 13q0 19 15.5 41.5
t38.5 34.5z" />
    <glyph glyph-name="b" unicode="b" horiz-adv-x="273" 
d="M192 310q0 11 -23 2q-26 -11 -26 -23q0 -6 10 -6q1 0 3 0.5t3 0.5q14 2 23.5 9.5t9.5 16.5zM55 492q4 4 5 4q14 0 23 -61q5 -53 19 -107q2 -9 8 -20.5t8 -11.5q4 0 20 20q12 13 18 16t23 5q7 1 16 1q10 0 17 -7q8 -8 8 -12t-5 -17q-8 -23 -19.5 -29.5t-42.5 -6.5h-11
q-31 1 -38 2.5t-11 9.5q-5 10 -13 37t-7 30q0 5 -3 19q-5 15 -7 43q-1 8 -4 29t-3 24q-2 18 -2 23v5z" />
    <glyph glyph-name="c" unicode="c" horiz-adv-x="222" 
d="M123 278q-4 0 -11.5 6.5t-12.5 6.5q-9 0 -15 -10.5t-6 -26.5q0 -21 10 -37q10 -17 17 -17q6 0 11 -5t28 -12q23 -8 23 -13q0 -6 -21 -8h-3q-27 0 -54 20t-31 42q0 5 -2.5 18t-2.5 20q0 10 5 20q1 2 2 5t2 4.5t2 4t1.5 3.5t2 3t3 3t3.5 2.5t5 2.5l6 2q17 4 25 2
q9 -2 25.5 -20t16.5 -25q0 -17 -16 1q-6 8 -13 8z" />
    <glyph glyph-name="d" unicode="d" horiz-adv-x="221" 
d="M125 223q0 7 -15 7q-14 0 -21 -6q-8 -5 -8 -24q0 -17 8 -17q7 0 21.5 16.5t14.5 23.5zM148 361q4 4 11 4q3 0 4.5 -2t2.5 -11.5t1.5 -24.5t1.5 -47q1 -47 1 -88q-5 4 -12 11q-12 12 -16 6q-21 -35 -28 -35q-4 0 -11 -7q-6 -6 -20 -6q-28 0 -28 37q0 24 15 40.5t36 16.5
q2 0 4 -0.5t4 -0.5q12 -2 15.5 -1t7.5 9q6 11 4 23v9q0 53 7 67z" />
    <glyph glyph-name="e" unicode="e" horiz-adv-x="234" 
d="M159 270q-4 15 -13 16h-3q-14 0 -33 -40q-6 -14 -6 -23q0 -17 14 -17q11 0 24 13q19 19 19 37q0 4 -2 14zM79 187q0 1 -12 12.5t-12 16.5q0 6 13 6q7 0 10.5 5t9.5 25q9 31 12 31q4 0 9 11t18 17q10 6 20 6q13 0 25 -13q11 -12 11 -34q0 -17 -7 -37q-7 -17 -23 -31.5
t-29 -14.5q-11 0 -11 -9q0 -8 9.5 -18.5t22.5 -15.5q20 -7 20 -17q0 -6 -11 -6q-17 0 -34 12q-10 8 -25.5 28t-15.5 26z" />
    <glyph glyph-name="f" unicode="f" horiz-adv-x="213" 
d="M76 396q16 16 31 16q3 0 23 -2q28 -5 28 -37v-5q-1 -9 -3 -12t-5 0.5t-5 11.5q-5 21 -26 21q-9 0 -18 -4q-13 -5 -17.5 -16.5t-4.5 -39.5q0 -20 1 -33l1 -23l26 3q26 3 26 -1q0 -5 -9.5 -12t-20.5 -11l-14 -5l3 -50q1 -13 1 -31q0 -19 -4 -19q-2 0 -11 9
q-8 10 -17.5 59.5t-9.5 81.5q0 74 25 99z" />
    <glyph glyph-name="g" unicode="g" horiz-adv-x="307" 
d="M91 104q0 -5 3 -5q5 0 13.5 9.5t8.5 14.5q0 1 -1 1q-4 0 -14 -8t-10 -12zM145 317q12 8 20 8q11 0 11 -16q0 -11 -2 -13.5t-12 -1.5h-4q-10 0 -25 -22q-15 -24 -15 -33t12 -9q22 0 44 44q10 20 17 20q4 0 7 -3q6 -5 6 -19q0 -30 -23 -82q-1 -15 2 -16q10 0 28 11
q17 11 31 11q9 0 9 -6q0 -8 -12 -14q-54 -28 -66 -28q-5 0 -21.5 -19.5t-16.5 -25.5t-21 -20.5t-38 -14.5q-8 0 -11 2q-8 5 -8 10q0 7 7 21q6 11 25 30t24 19h1q2 -2 15 4q14 7 29 40q15 32 15 35q0 1 -19 -12q-17 -13 -27 -13t-21 11t-11 21q0 13 12 36.5t22 31.5
q11 8 16 13z" />
    <glyph glyph-name="h" unicode="h" horiz-adv-x="259" 
d="M60 448q6 16 11 16q6 0 8 -41q4 -45 26 -130q9 -39 14 -39q3 0 3 16q0 10 9 36t16 37q5 9 12 9q10 0 20.5 -26t15.5 -62q2 -17 6 -19q4 -3 4 -11q0 -14 -7 -18q-5 -2 -12 3.5t-8 10.5q0 3 -8 40q-6 30 -12 30l-9 -15q-5 -18 -5 -26q0 -9 -12 -31q-11 -24 -18 -24
q-9 0 -24 45q-6 22 -6 24q0 5 -8 41t-8 39q-1 6 -9 44q-5 25 -5 30q0 7 6 21z" />
    <glyph glyph-name="i" unicode="i" horiz-adv-x="139" 
d="M57 348q8 4 11 4q9 0 9 -9q0 -4 -1 -6q-2 -7 -11.5 -7t-11.5 7t4 11zM58 307q2 5 6.5 5.5t6.5 -4.5q1 -5 8 -28t8 -28q7 -22 -6 -22q-7 0 -15.5 24.5t-8.5 42.5q0 8 1 10z" />
    <glyph glyph-name="j" unicode="j" horiz-adv-x="200" 
d="M125 349q2 3 6.5 3t4.5 -3q1 -13 9 -62q4 -21 4 -59q0 -28 -3 -46q-2 -12 -4.5 -14.5t-13.5 -2.5q-37 0 -57 44q-15 31 -15 44q0 4 2 4q4 0 12 -14q7 -14 19 -26t12 -16q0 -3 11 -9q3 -2 8 -2q7 0 7 18q0 4 -2 32q-2 22 -2 68q0 38 2 41z" />
    <glyph glyph-name="k" unicode="k" horiz-adv-x="301" 
d="M56 387q4 16 9 16q6 0 9 -21q2 -20 7 -30q19 -44 19 -75q0 -16 15 -43q15 -26 15 -32t-6 -6q-12 0 -26 15q-13 13 -18.5 30t-18.5 85q-3 13 -7 33q-1 3 -0.5 12t2.5 16zM178 330q0 5 7 5q5 0 5 -7q0 -17 -7 -24q-3 -2 -18 -22q-11 -16 -11 -22q0 -10 46 -13q39 -2 44 -7
l1 -1q0 -5 -21.5 -11t-37.5 -6q-21 0 -39.5 9.5t-18.5 22.5q0 11 8 26t17 22q9 4 9 9q-2 4 1.5 9.5t8.5 5.5q6 0 6 4z" />
    <glyph glyph-name="l" unicode="l" horiz-adv-x="149" 
d="M58 447q2 5 11 5q7 0 8.5 -8t2.5 -56q2 -107 17 -156q3 -10 -6 -10q-19 0 -29 52q-11 55 -11 110q0 42 7 63z" />
    <glyph glyph-name="m" unicode="m" horiz-adv-x="371" 
d="M230 343q16 8 28 8q14 0 28 -14q12 -13 22 -46.5t10 -59.5q0 -17 -5 -24q-4 -5 -4 -5.5t-2 -1t-3 0.5t-4 5q-7 10 -7 38q0 31 -4 32q-5 2 -5 12q0 9 -11 24q-12 14 -24 12q-13 -2 -25 -16q-12 -13 -12 -25q0 -2 0.5 -7t0.5 -8q3 -39 3 -48t-5 -10h-3q-5 -1 -8 2t-6 13
q-5 18 -16 25q-11 6 -11 17q0 8 -11 31t-16 26t-10.5 -3t-5.5 -14q0 -3 -4 -37.5t-4 -46.5v-5l1 -2q1 -4 1 -12q0 -20 -10 -20h-1q-7 0 -13 4q-7 4 -17 24.5t-12 34.5q-3 17 -7 21t-4 33q0 18 2 22q2 7 11 7q5 0 7 -4.5t4 -20.5q8 -59 16 -59q1 0 2.5 8.5t3 20t1.5 18.5
q0 6 -1 7q-2 7 9 26q8 14 12 18t13 4q11 0 25.5 -12t18.5 -23q3 -8 7 -8q6 0 17 15q13 17 28 23z" />
    <glyph glyph-name="n" unicode="n" horiz-adv-x="244" 
d="M129 338q3 3 8 3q9 0 21 -14q5 -6 10.5 -27t11 -46.5t7.5 -31.5q4 -16 2.5 -19t-10.5 -1q-7 2 -14.5 18t-7.5 27q0 10 -8 33.5t-12 23.5q-10 0 -18 -38q-3 -16 -16 -36.5t-20 -20.5q-12 0 -21 24.5t-9 57.5v9q1 22 2.5 27.5t7.5 5.5t7.5 -5.5t2.5 -25.5q2 -54 13 -57
q5 -2 7 6q24 79 36 87z" />
    <glyph glyph-name="o" unicode="o" horiz-adv-x="252" 
d="M176 294q-2 6 -43 6h-41v-26q0 -60 32 -60q8 0 15 3q14 5 14 10q0 3 9 16q15 21 15 45q0 1 -1 4v2zM97 318q8 2 32 2h17q39 -2 47 -12t8 -20q0 -11 -11 -39q-8 -21 -22 -37t-24 -16q-6 0 -11 -5q-3 -3 -8 -3q-22 0 -39 24q-13 17 -13 42q0 18 -1.5 22.5t-8.5 5.5
q-9 2 -9 6q0 15 43 30z" />
    <glyph glyph-name="p" unicode="p" horiz-adv-x="236" 
d="M84 250q-2 2 -2 4q0 8 22 13.5t37 5.5q24 0 34 -10q10 -12 8 -26q-3 -16 -13 -27t-32.5 -21.5t-35.5 -10.5t-13 -7q0 -3 8 -21q9 -18 9 -23q0 -3 7.5 -16.5t7.5 -17.5q0 -7 -10 -6t-10 6q0 7 -4 7q-2 0 -8 15t-11.5 31t-6.5 17q-5 6 -16 54q-3 9 6 9t12 -15l3 -16l20 3
q17 2 37 12.5t25 19.5q4 7 4 12q0 8 -14 8q-6 0 -22.5 -2.5t-24.5 -2.5q-13 0 -17 5z" />
    <glyph glyph-name="q" unicode="q" horiz-adv-x="289" 
d="M119 269q5 7 4 8t-8 1q-11 0 -19 -10q-10 -11 -10 -13q0 -1 2 -1t9 2t10 2t12 11zM63 262q9 13 14.5 19.5t16.5 12.5t25 6q29 0 29 -31q0 -9 -3 -29.5t-3 -28.5q0 -18 -8 -48q-13 -49 -13 -89q0 -17 4 -17q7 0 30.5 12.5t27.5 18.5q6 8 9 8q5 0 20 15q12 12 17 12
q3 0 3 -4t-1 -7q-5 -17 -45.5 -45.5t-60.5 -29.5q-10 0 -14 3t-9 13q-5 9 -5 22q0 21 16 90q9 42 11 62l2 20l-18 -8q-26 -12 -39 -12q-15 0 -15 12q0 8 9 23z" />
    <glyph glyph-name="r" unicode="r" horiz-adv-x="266" 
d="M159 398q2 1 21 12t24 11q7 -1 7 -5q0 -8 -27 -27q-42 -30 -68 -56q-6 -6 -21.5 -39.5t-15.5 -40.5q0 -3 -7 -10q-6 -5 -13 1q-5 5 -5 12q0 16 22 55q13 22 42 52.5t41 34.5z" />
    <glyph glyph-name="s" unicode="s" horiz-adv-x="202" 
d="M79 342q9 5 17 5q9 0 9 -8q0 -9 -6 -9q-7 0 -15 -10q-7 -7 -7 -18q0 -14 13 -25.5t30 -11.5q12 0 20 -6.5t8 -15.5q0 -10 -10 -17q-38 -24 -61 -24q-8 0 -11 4q-7 8 -7 18q0 9 6 9q3 0 7 -3t12 -3q11 0 22.5 5.5t11.5 11.5q0 4 -11 4q-19 0 -45 23q-9 9 -9 24q0 32 26 47
z" />
    <glyph glyph-name="t" unicode="t" horiz-adv-x="258" 
d="M66 377q4 4 7 4q7 0 10 -30q2 -28 5 -31q4 -4 23 -4q29 0 47 7q19 7 34 7q11 0 11 -4t-3.5 -7t-10.5 -5t-9 -4q-1 -1 -20.5 -5t-37.5 -8.5t-18 -6.5q0 -11 13.5 -24.5t24.5 -13.5q7 0 17.5 10.5t10.5 18.5t6 4q5 -3 7 -12q4 -13 -9 -26q-13 -14 -31 -14q-20 0 -35 10.5
t-35 38.5t-20 35q0 5 3 12q6 18 6 29q0 15 4 19z" />
    <glyph glyph-name="u" unicode="u" horiz-adv-x="265" 
d="M151 327q0 4 8.5 19.5t8.5 18.5q0 8 7 17q6 10 11 10q7 0 10 -38q2 -27 11 -57q6 -20 6 -28q0 -4 -2 -6t-4 -2q-5 0 -12 10.5t-11 25.5q-5 20 -7 20q-1 0 -14 -18q-33 -51 -58 -51q-20 0 -36 26t-16 55q0 21 8 34q11 19 17 19q2 0 2 -4t-1 -7q-3 -12 -3 -29q0 -28 7 -47
q9 -20 22 -20q16 0 32 25q14 22 14 27z" />
    <glyph glyph-name="v" unicode="v" horiz-adv-x="253" 
d="M167 408q18 18 24 18q8 0 8 -5q0 -3 -5 -10.5t-5 -9.5q0 -6 -7 -8q-4 -2 -19.5 -29.5t-15.5 -32.5l1 -1q2 0 -5 -10t-16.5 -21.5t-14.5 -14.5q-5 -4 -13 -4q-13 0 -19 11q-4 8 -15 42t-11 39q0 6 8 6q9 0 30 -53q4 -12 14 -12q8 0 12 10q28 62 49 85z" />
    <glyph glyph-name="w" unicode="w" horiz-adv-x="310" 
d="M238 376q12 6 15 6t3 -2q0 -4 -12 -24q-17 -26 -24 -62q-6 -31 -16 -31q-7 0 -17 10q-16 14 -18 14q-3 0 -12.5 -16t-9.5 -21q0 -4 -7.5 -8t-14.5 -4q-3 0 -7 2q-7 6 -23.5 32t-16.5 31t-11 23q-13 21 -13 36q0 14 9 15q5 1 8 -2t4 -10q2 -12 12 -27q6 -8 16.5 -32
t15.5 -30q5 -4 7.5 -2.5t10.5 15.5q17 27 31 27q4 0 7 -3q5 -5 15 -4t10 6q0 9 14.5 32.5t23.5 28.5z" />
    <glyph glyph-name="x" unicode="x" horiz-adv-x="211" 
d="M56 432q2 2 3 2q6 0 19 -27q17 -36 26 -36q3 0 8 3q28 17 34 17h1q2 -2 2 -4q0 -14 -17 -24q-13 -9 -13 -13q0 -3 20 -21q19 -16 19 -23q0 -2 -3 -2q-9 0 -29 14q-19 12 -24 10q-2 -1 -6.5 -17.5t-8.5 -16.5h-1q-9 3 -9 26q0 11 3 19q5 13 0 19q-11 12 -18.5 32t-7.5 33
q0 7 2 9z" />
    <glyph glyph-name="y" unicode="y" horiz-adv-x="230" 
d="M148 264q0 2 0.5 5t0.5 4q0 9 -5 9t-19 -14l-14 -15l9 -17q8 -16 13 -21h1q7 0 14 49zM159 380q0 7 7 7q13 0 13 -27v-10q-11 -166 -39 -166q-8 0 -19 11q-21 23 -21 49q0 8 3 16q4 10 3 13.5t-8 8.5q-27 20 -27 29q0 5 -7 16q-10 15 -10 33q0 12 6 12q5 0 14 -23
q8 -22 21.5 -37t25.5 -15h2q13 1 23 21q11 20 11 37q2 18 2 25z" />
    <glyph glyph-name="z" unicode="z" horiz-adv-x="328" 
d="M84 443q17 4 34 4q20 0 28 -7q7 -5 8 -9t-3 -16q-1 -3 -13 -27q-5 -9 -3 -13q7 -3 71 -5q68 -2 68 -7q0 -9 -22 -12t-78 -3q-46 0 -55 -5t-9 -29q0 -14 1.5 -17.5t7.5 -4.5h1q9 0 26.5 13t17.5 20q0 3 2 4.5t4.5 0.5t4.5 -4q2 -4 2 -6q0 -14 -21 -32t-41 -18
q-14 0 -23 10q-9 9 -9 20q0 5 7 40q3 15 1 25q-1 5 1.5 7t9.5 3q11 2 20 24q7 21 7 25q0 1 -6 1q-17 0 -51 -6q-17 -4 -17 1q0 7 8.5 14t20.5 9z" />
    <glyph glyph-name="nbsp" unicode="&#xa0;" 
 />
  </font>
</defs>
</svg>
